<?xml version="1.0" standalone="no"?>
<!DOCTYPE svg PUBLIC "-//W3C//DTD SVG 20010904//EN"
 "http://www.w3.org/TR/2001/REC-SVG-20010904/DTD/svg10.dtd">
<svg version="1.0" xmlns="http://www.w3.org/2000/svg"
 width="768.000000pt" height="1028.000000pt" viewBox="0 0 768.000000 1028.000000"
 preserveAspectRatio="xMidYMid meet">
<metadata>
Created by potrace 1.16, written by Peter Selinger 2001-2019
</metadata>
<g transform="translate(0.000000,1028.000000) scale(0.100000,-0.100000)"
fill="#000000" stroke="none">
<path d="M7355 10240 c-22 -11 -1259 -983 -2750 -2160 l-2710 -2139 -5 2082
c-5 1924 -6 2084 -22 2113 -25 46 -78 93 -112 99 -17 3 -394 5 -838 3 l-807
-3 -37 -35 c-20 -19 -45 -53 -55 -75 -18 -39 -19 -189 -19 -4985 0 -4796 1
-4946 19 -4985 10 -22 35 -56 55 -75 l37 -35 834 0 834 0 36 35 c77 74 69
-144 75 2178 l5 2083 2718 -2145 c1805 -1424 2733 -2151 2763 -2162 94 -36
224 4 275 84 l29 46 0 4975 0 4976 -23 40 c-35 62 -104 99 -191 103 -57 2 -79
-1 -111 -18z"/>
</g>
</svg>
